# xmcd
#
# Track frame offsets: 
#        187
#        26832
#        51772
#        85015
#        105690
#        150130
#        194775
#        216430
#
# Disc length: 3118 seconds
#
# Revision: 3
# Processed by: cddbd v1.5.2PL0 Copyright (c) Steve Scherf et al.
# Submitted via: ExactAudioCopyFreeDBPlugin 1.0
#
DISCID=670c2c08
DTITLE=Robben Ford and The Blue Line - The Authorized Bootleg
DYEAR=1998
DGENRE=Blues
TTITLE0=When I Leave Here
TTITLE1=Chevrolet
TTITLE2=Top Of The Hill
TTITLE3=Start It Up
TTITLE4=Don't Let The Sun Catch You Crying
TTITLE5=Help The Poor
TTITLE6=Lovin' Cup
TTITLE7=Tired Of Talkin'
EXTD=
EXTT0=
EXTT1=
EXTT2=
EXTT3=
EXTT4=
EXTT5=
EXTT6=
EXTT7=
PLAYORDER=
